# xmcd
#
# Track frame offsets:
#  183
#  14418
#  29530
#  43485
#  55595
#  71448
#  86290
#  99758
#  113025
#  126045
#  137678
#  153763
#  168888
#  182115
#  198415
#  211338
#  226145
#
# Disc length: 3187 seconds
#
# Revision: 0
# Processed by: cddbd v1.5.1PL2 Copyright (c) Steve Scherf et al.
# Submitted via: Collectorz.com_Music_Collector 6.11
#
DISCID=d60c7111
DTITLE=George Strait - Great Strait
DYEAR=1990
DGENRE=Country
TTITLE0=Ocean Front Property
TTITLE1=You're Something Special To Me
TTITLE2=Marina Del Ray
TTITLE3=Fool Hearted Memory
TTITLE4=Baby's Gotten Good At Goodbye
TTITLE5=Does Fort Worth Ever Cross Your Mind
TTITLE6=If You're Thinking You Want A Stranger (There's One Coming Home)
TTITLE7=Let's Fall Ot Pieces Together
TTITLE8=Nobody In His Right Mind Would've Left Her
TTITLE9=Deep Water
TTITLE10=Baby Blue
TTITLE11=All My Ex's Live In Texas
TTITLE12=Beyond The Blue Neon
TTITLE13=Famous Last Words Of A Fool
TTITLE14=Chair
TTITLE15=Dance Time In Texas
TTITLE16=Amarillo By Morning
EXTD=
EXTT0=
EXTT1=
EXTT2=
EXTT3=
EXTT4=
EXTT5=
EXTT6=
EXTT7=
EXTT8=
EXTT9=
EXTT10=
EXTT11=
EXTT12=
EXTT13=
EXTT14=
EXTT15=
EXTT16=
PLAYORDER=
